<mxfile host="app.diagrams.net" agent="Mozilla/5.0 (Windows NT 10.0; Win64; x64; rv:130.0) Gecko/20100101 Firefox/130.0" version="24.7.13">
  <diagram name="PÃ¡gina-1" id="tgmQOENE1AUmDB8Zj88i">
    <mxGraphModel dx="3066" dy="1957" grid="1" gridSize="10" guides="1" tooltips="1" connect="1" arrows="1" fold="1" page="1" pageScale="1" pageWidth="827" pageHeight="1169" math="0" shadow="0">
      <root>
        <mxCell id="0" />
        <mxCell id="1" parent="0" />
        <mxCell id="V4rOPZaa1DTqSu1dBDB0-2" value="Actor" style="shape=umlActor;verticalLabelPosition=bottom;verticalAlign=top;html=1;" vertex="1" parent="1">
          <mxGeometry x="-695" y="-220" width="30" height="60" as="geometry" />
        </mxCell>
        <mxCell id="V4rOPZaa1DTqSu1dBDB0-3" value="" style="endArrow=open;endFill=1;endSize=12;html=1;rounded=0;" edge="1" parent="1">
          <mxGeometry width="160" relative="1" as="geometry">
            <mxPoint x="-620" y="-179.91" as="sourcePoint" />
            <mxPoint x="-460" y="-179.91" as="targetPoint" />
          </mxGeometry>
        </mxCell>
        <mxCell id="V4rOPZaa1DTqSu1dBDB0-4" value="&lt;div style=&quot;font-size: 30px;&quot;&gt;&lt;font style=&quot;font-size: 30px;&quot;&gt;Administrador cancion&lt;/font&gt;&lt;/div&gt;" style="text;html=1;align=center;verticalAlign=middle;resizable=0;points=[];autosize=1;strokeColor=none;fillColor=none;" vertex="1" parent="1">
          <mxGeometry x="-840" y="-352" width="320" height="50" as="geometry" />
        </mxCell>
        <mxCell id="V4rOPZaa1DTqSu1dBDB0-5" value="CASOS DE USO PUNTO DE VISTA ADMINISTRADOR TIENDA" style="text;html=1;align=center;verticalAlign=middle;resizable=0;points=[];autosize=1;strokeColor=none;fillColor=none;" vertex="1" parent="1">
          <mxGeometry x="-715" y="-410" width="350" height="30" as="geometry" />
        </mxCell>
        <mxCell id="V4rOPZaa1DTqSu1dBDB0-6" value="&lt;font style=&quot;font-size: 20px;&quot;&gt;Gestion Canciones&lt;/font&gt;" style="ellipse;whiteSpace=wrap;html=1;" vertex="1" parent="1">
          <mxGeometry x="-460" y="-214" width="140" height="70" as="geometry" />
        </mxCell>
        <mxCell id="V4rOPZaa1DTqSu1dBDB0-7" value="" style="endArrow=open;endFill=1;endSize=12;html=1;rounded=0;exitX=1;exitY=0;exitDx=0;exitDy=0;" edge="1" parent="1" source="V4rOPZaa1DTqSu1dBDB0-6">
          <mxGeometry width="160" relative="1" as="geometry">
            <mxPoint x="-310" y="-280" as="sourcePoint" />
            <mxPoint x="-150" y="-330" as="targetPoint" />
            <Array as="points" />
          </mxGeometry>
        </mxCell>
        <mxCell id="V4rOPZaa1DTqSu1dBDB0-8" value="&lt;font style=&quot;font-size: 20px;&quot;&gt;Alta cancion&lt;/font&gt;" style="ellipse;whiteSpace=wrap;html=1;" vertex="1" parent="1">
          <mxGeometry x="-130" y="-380" width="140" height="70" as="geometry" />
        </mxCell>
        <mxCell id="V4rOPZaa1DTqSu1dBDB0-9" value="&lt;font style=&quot;font-size: 20px;&quot;&gt;Baja cancion&lt;/font&gt;" style="ellipse;whiteSpace=wrap;html=1;" vertex="1" parent="1">
          <mxGeometry x="-110" y="-280" width="140" height="70" as="geometry" />
        </mxCell>
        <mxCell id="V4rOPZaa1DTqSu1dBDB0-10" value="" style="endArrow=open;endFill=1;endSize=12;html=1;rounded=0;exitX=0.978;exitY=0.331;exitDx=0;exitDy=0;exitPerimeter=0;" edge="1" parent="1" source="V4rOPZaa1DTqSu1dBDB0-6">
          <mxGeometry width="160" relative="1" as="geometry">
            <mxPoint x="-290" y="-250" as="sourcePoint" />
            <mxPoint x="-130" y="-250" as="targetPoint" />
          </mxGeometry>
        </mxCell>
        <mxCell id="V4rOPZaa1DTqSu1dBDB0-11" value="&lt;div style=&quot;font-size: 20px;&quot;&gt;consulta cancion&lt;/div&gt;" style="ellipse;whiteSpace=wrap;html=1;" vertex="1" parent="1">
          <mxGeometry x="-120" y="-160" width="190" height="70" as="geometry" />
        </mxCell>
        <mxCell id="V4rOPZaa1DTqSu1dBDB0-12" value="" style="endArrow=open;endFill=1;endSize=12;html=1;rounded=0;entryX=0;entryY=0.5;entryDx=0;entryDy=0;" edge="1" parent="1" source="V4rOPZaa1DTqSu1dBDB0-6" target="V4rOPZaa1DTqSu1dBDB0-11">
          <mxGeometry width="160" relative="1" as="geometry">
            <mxPoint x="-340" y="-154" as="sourcePoint" />
            <mxPoint x="-180" y="-204" as="targetPoint" />
            <Array as="points" />
          </mxGeometry>
        </mxCell>
        <mxCell id="V4rOPZaa1DTqSu1dBDB0-13" value="&lt;div style=&quot;font-size: 20px;&quot;&gt;Listado cancion&lt;/div&gt;" style="ellipse;whiteSpace=wrap;html=1;" vertex="1" parent="1">
          <mxGeometry x="-120" y="-58" width="190" height="70" as="geometry" />
        </mxCell>
        <mxCell id="V4rOPZaa1DTqSu1dBDB0-14" value="&lt;font style=&quot;font-size: 20px;&quot;&gt;Modificar&lt;/font&gt;" style="ellipse;whiteSpace=wrap;html=1;" vertex="1" parent="1">
          <mxGeometry x="-120" y="40" width="190" height="70" as="geometry" />
        </mxCell>
        <mxCell id="V4rOPZaa1DTqSu1dBDB0-15" value="" style="endArrow=open;endFill=1;endSize=12;html=1;rounded=0;entryX=0;entryY=0.5;entryDx=0;entryDy=0;exitX=0.71;exitY=1.029;exitDx=0;exitDy=0;exitPerimeter=0;" edge="1" parent="1" source="V4rOPZaa1DTqSu1dBDB0-6">
          <mxGeometry width="160" relative="1" as="geometry">
            <mxPoint x="-331" y="-140" as="sourcePoint" />
            <mxPoint x="-130" y="-35" as="targetPoint" />
            <Array as="points" />
          </mxGeometry>
        </mxCell>
        <mxCell id="V4rOPZaa1DTqSu1dBDB0-16" value="" style="endArrow=open;endFill=1;endSize=12;html=1;rounded=0;entryX=0;entryY=0.5;entryDx=0;entryDy=0;exitX=0.601;exitY=0.962;exitDx=0;exitDy=0;exitPerimeter=0;" edge="1" parent="1" source="V4rOPZaa1DTqSu1dBDB0-6">
          <mxGeometry width="160" relative="1" as="geometry">
            <mxPoint x="-331" y="-114.5" as="sourcePoint" />
            <mxPoint x="-120" y="68.5" as="targetPoint" />
            <Array as="points" />
          </mxGeometry>
        </mxCell>
      </root>
    </mxGraphModel>
  </diagram>
</mxfile>
